<?xml version="1.0" encoding="UTF-8"?>
<svg xmlns="http://www.w3.org/2000/svg"
     xmlns:xlink="http://www.w3.org/1999/xlink"
     fill-opacity="1" color-rendering="auto" color-interpolation="auto"
     text-rendering="auto" stroke="black" stroke-linecap="square"
     width="1773" stroke-miterlimit="10" shape-rendering="auto"
     stroke-opacity="1" fill="black" stroke-dasharray="none"
     font-weight="normal" stroke-width="1" height="1929"
     preserveAspectRatio="xMinYMin meet" viewBox="0 0 1773 1929"
     font-family="'Dialog'" font-style="normal" stroke-linejoin="miter" font-size="12px" stroke-dashoffset="0" image-rendering="auto">
  <!--Generated by ySVG 2.5-->
  <defs id="genericDefs"/>
  <g>
    <defs id="defs1">
      <clipPath clipPathUnits="userSpaceOnUse" id="clipPath1">
        <path d="M0 0 L1773 0 L1773 1929 L0 1929 L0 0 Z"/>
      </clipPath>
      <clipPath clipPathUnits="userSpaceOnUse" id="clipPath2">
        <path d="M-18 -91 L1443.3486 -91 L1443.3486 1498.9276 L-18 1498.9276 L-18 -91 Z"/>
      </clipPath>
    </defs>
    <g text-rendering="geometricPrecision" shape-rendering="geometricPrecision" transform="scale(1.2133,1.2133) translate(18,91)">
      <rect x="-18" width="1462" height="1590" y="-91" clip-path="url(#clipPath2)" stroke="none"/>
    </g>
    <a href="https://secf00tprint.github.io/blog/hhc/2020/writeup/en#netwars" target="_top">
    <g text-rendering="geometricPrecision" shape-rendering="geometricPrecision" transform="matrix(1.2133,0,0,1.2133,21.8387,110.4069)">
      <rect x="441.6619" width="537" height="74" y="77.5" clip-path="url(#clipPath2)" stroke="none"/>
    </g>
    <g stroke-linecap="butt" transform="matrix(1.2133,0,0,1.2133,21.8387,110.4069)" fill="white" text-rendering="geometricPrecision" shape-rendering="geometricPrecision" stroke="white" stroke-miterlimit="1.45">
      <rect fill="none" x="441.6619" width="537" height="74" y="77.5" clip-path="url(#clipPath2)"/>
      <text x="648.3894" font-size="30px" y="124.8857" clip-path="url(#clipPath2)" font-family="sans-serif" stroke="none" xml:space="preserve">Netwars</text>
    </g>
    </a>
    <a href="#" target="_top">
    <g text-rendering="geometricPrecision" shape-rendering="geometricPrecision" transform="matrix(1.2133,0,0,1.2133,21.8387,110.4069)">
      <rect x="443" width="537" height="74" y="225.5" clip-path="url(#clipPath2)" stroke="none"/>
    </g>
    <g stroke-linecap="butt" transform="matrix(1.2133,0,0,1.2133,21.8387,110.4069)" fill="white" text-rendering="geometricPrecision" shape-rendering="geometricPrecision" stroke="white" stroke-miterlimit="1.45">
      <rect fill="none" x="443" width="537" height="74" y="225.5" clip-path="url(#clipPath2)"/>
      <text x="607.4888" font-size="30px" y="272.8857" clip-path="url(#clipPath2)" font-family="sans-serif" stroke="none" xml:space="preserve">Santa's Office</text>
    </g>
    </a>
    <a href="https://secf00tprint.github.io/blog/hhc/2020/writeup/en#talks-lobby" target="_top">
    <g text-rendering="geometricPrecision" shape-rendering="geometricPrecision" transform="matrix(1.2133,0,0,1.2133,21.8387,110.4069)">
      <rect x="448" width="537" height="74" y="374" clip-path="url(#clipPath2)" stroke="none"/>
    </g>
    <g stroke-linecap="butt" transform="matrix(1.2133,0,0,1.2133,21.8387,110.4069)" fill="white" text-rendering="geometricPrecision" shape-rendering="geometricPrecision" stroke="white" stroke-miterlimit="1.45">
      <rect fill="none" x="448" width="537" height="74" y="374" clip-path="url(#clipPath2)"/>
      <text x="627.2544" font-size="30px" y="421.3857" clip-path="url(#clipPath2)" font-family="sans-serif" stroke="none" xml:space="preserve">Talks Lobby</text>
    </g>
    </a>
    <a href="https://secf00tprint.github.io/blog/hhc/2020/writeup/en#workshop" target="_top">
    <g text-rendering="geometricPrecision" shape-rendering="geometricPrecision" transform="matrix(1.2133,0,0,1.2133,21.8387,110.4069)">
      <rect x="448" width="537" height="74" y="514" clip-path="url(#clipPath2)" stroke="none"/>
    </g>
    <g stroke-linecap="butt" transform="matrix(1.2133,0,0,1.2133,21.8387,110.4069)" fill="white" text-rendering="geometricPrecision" shape-rendering="geometricPrecision" stroke="white" stroke-miterlimit="1.45">
      <rect fill="none" x="448" width="537" height="74" y="514" clip-path="url(#clipPath2)"/>
      <text x="641.6172" font-size="30px" y="561.3857" clip-path="url(#clipPath2)" font-family="sans-serif" stroke="none" xml:space="preserve">Workshop</text>
    </g>
    </a>
    <a href="https://secf00tprint.github.io/blog/hhc/2020/writeup/en#courtyard" target="_top">
    <g text-rendering="geometricPrecision" shape-rendering="geometricPrecision" transform="matrix(1.2133,0,0,1.2133,21.8387,110.4069)">
      <rect x="448" width="537" height="74" y="654" clip-path="url(#clipPath2)" stroke="none"/>
    </g>
    <g stroke-linecap="butt" transform="matrix(1.2133,0,0,1.2133,21.8387,110.4069)" fill="white" text-rendering="geometricPrecision" shape-rendering="geometricPrecision" stroke="white" stroke-miterlimit="1.45">
      <rect fill="none" x="448" width="537" height="74" y="654" clip-path="url(#clipPath2)"/>
      <text x="641.5366" font-size="30px" y="701.3857" clip-path="url(#clipPath2)" font-family="sans-serif" stroke="none" xml:space="preserve">Courtyard</text>
    </g>
    </a>
    <a href="https://secf00tprint.github.io/blog/hhc/2020/writeup/en#kitchen" target="_top">
    <g text-rendering="geometricPrecision" shape-rendering="geometricPrecision" transform="matrix(1.2133,0,0,1.2133,21.8387,110.4069)">
      <rect x="455" width="537" height="74" y="794" clip-path="url(#clipPath2)" stroke="none"/>
    </g>
    <g stroke-linecap="butt" transform="matrix(1.2133,0,0,1.2133,21.8387,110.4069)" fill="white" text-rendering="geometricPrecision" shape-rendering="geometricPrecision" stroke="white" stroke-miterlimit="1.45">
      <rect fill="none" x="455" width="537" height="74" y="794" clip-path="url(#clipPath2)"/>
      <text x="667.1255" font-size="30px" y="841.3857" clip-path="url(#clipPath2)" font-family="sans-serif" stroke="none" xml:space="preserve">Kitchen</text>
    </g>
    </a>
    <a href="https://secf00tprint.github.io/blog/hhc/2020/writeup/en#dining-room" target="_top">
    <g text-rendering="geometricPrecision" shape-rendering="geometricPrecision" transform="matrix(1.2133,0,0,1.2133,21.8387,110.4069)">
      <rect x="109.5363" width="537" height="74" y="934" clip-path="url(#clipPath2)" stroke="none"/>
    </g>
    <g stroke-linecap="butt" transform="matrix(1.2133,0,0,1.2133,21.8387,110.4069)" fill="white" text-rendering="geometricPrecision" shape-rendering="geometricPrecision" stroke="white" stroke-miterlimit="1.45">
      <rect fill="none" x="109.5363" width="537" height="74" y="934" clip-path="url(#clipPath2)"/>
      <text x="281.4592" font-size="30px" y="981.3857" clip-path="url(#clipPath2)" font-family="sans-serif" stroke="none" xml:space="preserve">Dining Room</text>
    </g>
    </a>
    <a href="https://secf00tprint.github.io/blog/hhc/2020/writeup/en#entry" target="_top">
    <g text-rendering="geometricPrecision" shape-rendering="geometricPrecision" transform="matrix(1.2133,0,0,1.2133,21.8387,110.4069)">
      <rect x="446" width="537" height="74" y="1074" clip-path="url(#clipPath2)" stroke="none"/>
    </g>
    <g stroke-linecap="butt" transform="matrix(1.2133,0,0,1.2133,21.8387,110.4069)" fill="white" text-rendering="geometricPrecision" shape-rendering="geometricPrecision" stroke="white" stroke-miterlimit="1.45">
      <rect fill="none" x="446" width="537" height="74" y="1074" clip-path="url(#clipPath2)"/>
      <text x="674.5903" font-size="30px" y="1121.3857" clip-path="url(#clipPath2)" font-family="sans-serif" stroke="none" xml:space="preserve">Entry</text>
      <rect fill="none" x="90" width="1240.3237" height="566" y="633" clip-path="url(#clipPath2)"/>
      <rect fill="none" x="90" width="1240.3237" height="148" y="485" clip-path="url(#clipPath2)"/>
      <rect fill="none" x="90" width="1240.3237" height="148" y="336" clip-path="url(#clipPath2)"/>
      <rect fill="none" x="90" width="1240.3237" height="148" y="188.5" clip-path="url(#clipPath2)"/>
      <rect fill="none" x="90" width="1240.3237" height="148" y="40.5" clip-path="url(#clipPath2)"/>
    </g>
    </a>
    <g text-rendering="geometricPrecision" shape-rendering="geometricPrecision" transform="matrix(1.2133,0,0,1.2133,21.8387,110.4069)">
      <rect x="748.8133" width="537" height="74" y="934" clip-path="url(#clipPath2)" stroke="none"/>
    </g>
    <g stroke-linecap="butt" transform="matrix(1.2133,0,0,1.2133,21.8387,110.4069)" fill="white" text-rendering="geometricPrecision" shape-rendering="geometricPrecision" stroke="white" stroke-miterlimit="1.45">
      <rect fill="none" x="748.8133" width="537" height="74" y="934" clip-path="url(#clipPath2)"/>
      <text x="927.0643" font-size="30px" y="981.3857" clip-path="url(#clipPath2)" font-family="sans-serif" stroke="none" xml:space="preserve">Great Room</text>
    </g>
    <g text-rendering="geometricPrecision" shape-rendering="geometricPrecision" transform="matrix(1.2133,0,0,1.2133,21.8387,110.4069)">
      <rect x="436.4051" width="537" height="74" y="1257.0957" clip-path="url(#clipPath2)" stroke="none"/>
    </g>
    <g stroke-linecap="butt" transform="matrix(1.2133,0,0,1.2133,21.8387,110.4069)" fill="white" text-rendering="geometricPrecision" shape-rendering="geometricPrecision" stroke="white" stroke-miterlimit="1.45">
      <rect fill="none" x="436.4051" width="537" height="74" y="1257.0957" clip-path="url(#clipPath2)"/>
      <text x="642.5394" font-size="30px" y="1304.4814" clip-path="url(#clipPath2)" font-family="sans-serif" stroke="none" xml:space="preserve">Gondola</text>
      <path fill="none" d="M796.8306 77.524 L800.4651 74.1885 L808.043 65.757 L814.7697 56.6562 L820.5988 46.956 L825.4837 36.726 L829.3779 26.0359 L832.2347 14.9556 L834.0076 3.5546 L834.6501 -8.0973 L834.5328 -13.9955 L834.1155 -19.9304 L833.3923 -25.8931 L832.3575 -31.8749 L831.0215 -37.7968 L829.4051 -43.5816 L827.5167 -49.2234 L825.3652 -54.7165 L820.3076 -65.2331 L814.3019 -75.0849 L807.4179 -84.2253 L799.7252 -92.6077 L791.2937 -100.1855 L782.1929 -106.9123 L772.4927 -112.7414 L762.2627 -117.6263 L751.5726 -121.5204 L740.4922 -124.3772 L729.0913 -126.1501 L717.4394 -126.7926 L711.5411 -126.6754 L705.6063 -126.2581 L699.6437 -125.5349 L693.6618 -124.5 L687.7399 -123.1641 L681.9551 -121.5476 L676.3133 -119.6593 L670.8202 -117.5078 L660.3036 -112.4501 L650.4518 -106.4445 L641.3115 -99.5604 L632.9291 -91.8678 L625.3512 -83.4362 L618.6245 -74.3355 L612.7953 -64.6352 L607.9105 -54.4052 L604.0163 -43.7152 L601.1595 -32.6348 L599.3866 -21.2338 L598.7441 -9.5819 L598.8613 -3.6837 L599.2786 2.2511 L600.0018 8.2138 L601.0367 14.1957 L602.3726 20.1175 L603.9891 25.9023 L605.8774 31.5442 L608.0289 37.0373 L613.0865 47.5539 L619.0922 57.4057 L625.9763 66.546 L630.8585 71.866 L630.9329 71.9328" clip-path="url(#clipPath2)" stroke="black"/>
      <path fill="black" d="M636.6052 77.5741 L631.6225 65.5669 L630.2238 71.2276 L624.5709 72.6573 Z" clip-path="url(#clipPath2)" stroke="none"/>
      <path fill="none" d="M763.2383 77.4981 L771.6443 70.2515 L779.9011 61.6195 L787.2835 52.2548 L793.7401 42.2293 L799.2195 31.615 L803.6706 20.4838 L807.0419 8.9076 L808.3067 2.975 L809.2822 -3.0418 L809.9622 -9.1339 L810.3401 -15.2924 L810.4097 -21.5082 L810.1644 -27.7724 L809.5979 -34.0759 L808.7037 -40.4097 L807.4905 -46.6903 L805.9774 -52.8357 L804.1732 -58.8394 L802.087 -64.6951 L799.7278 -70.3963 L797.1045 -75.9366 L794.2261 -81.3096 L791.1017 -86.5089 L784.1506 -96.3607 L776.3231 -105.4406 L767.691 -113.6974 L758.3264 -121.0798 L748.3009 -127.5364 L737.6866 -133.0158 L726.5554 -137.4669 L714.9792 -140.8382 L709.0466 -142.103 L703.0298 -143.0785 L696.9377 -143.7585 L690.7792 -144.1365 L684.5634 -144.206 L678.2993 -143.9607 L671.9957 -143.3942 L665.6619 -142.5 L659.3813 -141.2868 L653.2359 -139.7737 L647.2322 -137.9695 L641.3765 -135.8833 L635.6754 -133.5241 L630.135 -130.9008 L624.762 -128.0225 L619.5627 -124.8981 L609.7109 -117.947 L600.631 -110.1194 L592.3741 -101.4874 L584.9918 -92.1227 L578.5352 -82.0972 L573.0558 -71.483 L568.6047 -60.3518 L565.2333 -48.7755 L563.9686 -42.843 L562.993 -36.8261 L562.3131 -30.734 L561.9351 -24.5755 L561.8656 -18.3597 L562.1109 -12.0956 L562.6774 -5.7921 L563.5716 0.5418 L564.7848 6.8224 L566.2979 12.9678 L568.1021 18.9715 L570.1883 24.8272 L572.5475 30.5283 L575.1708 36.0687 L578.0491 41.4417 L581.1735 46.641 L588.1246 56.4928 L595.9521 65.5727 L603.0729 72.3839 L603.1515 72.4458" clip-path="url(#clipPath2)" stroke="black"/>
      <path fill="black" d="M609.3069 77.5557 L603.2675 66.0438 L602.382 71.8071 L596.8801 73.738 Z" clip-path="url(#clipPath2)" stroke="none"/>
      <path fill="none" d="M798.1687 225.524 L801.8032 222.1886 L809.3811 213.757 L816.1078 204.6562 L821.937 194.956 L826.8218 184.726 L830.716 174.0359 L833.5728 162.9556 L835.3457 151.5546 L835.9882 139.9027 L835.871 134.0045 L835.4537 128.0697 L834.7305 122.107 L833.6956 116.1251 L832.3597 110.2032 L830.7432 104.4184 L828.8549 98.7766 L826.7034 93.2835 L821.6458 82.7669 L815.6401 72.9151 L808.756 63.7747 L801.0634 55.3924 L792.6318 47.8145 L783.5311 41.0878 L773.8308 35.2586 L763.6008 30.3737 L752.9108 26.4796 L741.8304 23.6228 L730.4294 21.8499 L718.7776 21.2074 L712.8793 21.3246 L706.9445 21.7419 L700.9818 22.4651 L694.9999 23.5 L689.0781 24.8359 L683.2933 26.4524 L677.6514 28.3407 L672.1584 30.4922 L661.6417 35.5498 L651.79 41.5555 L642.6496 48.4396 L634.2672 56.1322 L626.6893 64.5638 L619.9626 73.6645 L614.1335 83.3648 L609.2486 93.5948 L605.3544 104.2848 L602.4977 115.3652 L600.7247 126.7662 L600.0823 138.418 L600.1995 144.3163 L600.6168 150.2511 L601.34 156.2138 L602.3749 162.1956 L603.7108 168.1175 L605.3272 173.9023 L607.2156 179.5442 L609.3671 185.0372 L614.4247 195.5539 L620.4304 205.4057 L627.3144 214.546 L632.1966 219.8659 L632.271 219.9328" clip-path="url(#clipPath2)" stroke="black"/>
      <path fill="black" d="M637.9433 225.5741 L632.9606 213.5669 L631.562 219.2276 L625.909 220.6573 Z" clip-path="url(#clipPath2)" stroke="none"/>
      <path fill="none" d="M764.5764 225.4981 L772.9824 218.2515 L781.2393 209.6195 L788.6216 200.2548 L795.0782 190.2293 L800.5577 179.6151 L805.0087 168.4838 L808.3801 156.9076 L809.6448 150.9751 L810.6204 144.9582 L811.3004 138.8661 L811.6783 132.7076 L811.7479 126.4918 L811.5026 120.2277 L810.936 113.9242 L810.0418 107.5903 L808.8287 101.3097 L807.3155 95.1643 L805.5114 89.1606 L803.4252 83.3049 L801.0659 77.6038 L798.4426 72.0634 L795.5643 66.6904 L792.4399 61.4911 L785.4888 51.6393 L777.6613 42.5594 L769.0292 34.3026 L759.6645 26.9202 L749.6391 20.4636 L739.0248 14.9842 L727.8936 10.5331 L716.3173 7.1618 L710.3848 5.897 L704.368 4.9215 L698.2758 4.2415 L692.1174 3.8635 L685.9016 3.794 L679.6374 4.0393 L673.3339 4.6058 L667 5.5 L660.7194 6.7132 L654.5741 8.2263 L648.5704 10.0305 L642.7147 12.1167 L637.0135 14.4759 L631.4732 17.0992 L626.1002 19.9775 L620.9009 23.1019 L611.0491 30.053 L601.9691 37.8805 L593.7123 46.5126 L586.33 55.8773 L579.8734 65.9027 L574.3939 76.517 L569.9428 87.6482 L566.5715 99.2245 L565.3068 105.157 L564.3312 111.1739 L563.6512 117.266 L563.2733 123.4245 L563.2037 129.6403 L563.449 135.9044 L564.0156 142.2079 L564.9097 148.5418 L566.1229 154.8224 L567.636 160.9678 L569.4402 166.9715 L571.5264 172.8271 L573.8857 178.5283 L576.5089 184.0686 L579.3873 189.4417 L582.5117 194.6409 L589.4628 204.4927 L597.2903 213.5727 L604.4111 220.3839 L604.4896 220.4458" clip-path="url(#clipPath2)" stroke="black"/>
      <path fill="black" d="M610.645 225.5557 L604.6056 214.0438 L603.7202 219.8071 L598.2182 221.738 Z" clip-path="url(#clipPath2)" stroke="none"/>
      <path fill="none" d="M823.8816 373.9883 L830.5264 367.8946 L838.2115 359.3625 L845.0588 350.1198 L851.0084 340.227 L856.0004 329.7444 L859.9751 318.7325 L862.8724 307.2517 L863.8984 301.3544 L864.6326 295.3625 L865.0674 289.2835 L865.1956 283.1251 L865.0124 276.9681 L864.5231 270.8933 L863.7354 264.9082 L862.6567 259.0203 L859.6567 247.5659 L855.5837 236.59 L850.4981 226.1525 L844.4602 216.3133 L837.5305 207.1322 L829.7694 198.6692 L821.2373 190.9841 L811.9946 184.1369 L802.1018 178.1872 L791.6193 173.1952 L780.6074 169.2205 L769.1266 166.3232 L763.2292 165.2973 L757.2373 164.5631 L751.1584 164.1282 L745 164 L738.843 164.1833 L732.7682 164.6725 L726.7831 165.4603 L720.8951 166.539 L709.4407 169.5389 L698.4648 173.6119 L688.0273 178.6975 L678.1881 184.7354 L669.0071 191.6651 L660.5441 199.4262 L652.859 207.9583 L646.0117 217.201 L640.0621 227.0938 L635.07 237.5764 L631.0954 248.5882 L628.1981 260.069 L627.1721 265.9664 L626.4379 271.9583 L626.003 278.0372 L625.8749 284.1956 L626.0581 290.3526 L626.5474 296.4275 L627.3351 302.4126 L628.4138 308.3005 L631.4137 319.7549 L635.4867 330.7308 L640.5723 341.1683 L646.6102 351.0075 L653.5399 360.1885 L661.301 368.6515 L661.3226 368.671" clip-path="url(#clipPath2)" stroke="black"/>
      <path fill="black" d="M667.2668 374.0251 L661.6968 362.2788 L660.5796 368.0017 L655.0042 369.7091 Z" clip-path="url(#clipPath2)" stroke="none"/>
      <path fill="none" d="M790.4937 373.997 L793.9215 371.5181 L803.0401 363.4931 L811.3527 354.6358 L818.7946 345.0088 L825.3011 334.6748 L828.1834 329.2623 L830.8077 323.6964 L833.1658 317.9851 L835.2497 312.1361 L837.0513 306.1573 L838.5625 300.0566 L839.7752 293.8417 L840.6814 287.5204 L841.2729 281.1007 L841.5418 274.5903 L841.4813 268.0746 L841.0953 261.6392 L840.3918 255.2922 L839.3784 249.0417 L838.063 242.8957 L836.4536 236.8624 L834.5578 230.9498 L832.3835 225.166 L829.9386 219.519 L827.2308 214.0171 L821.0581 203.4803 L813.9279 193.6203 L805.9028 184.5017 L797.0455 176.1891 L787.4186 168.7473 L777.0846 162.2407 L771.672 159.3584 L766.1061 156.7341 L760.3948 154.376 L754.5459 152.2921 L748.5671 150.4905 L742.4664 148.9793 L736.2515 147.7666 L729.9302 146.8604 L723.5104 146.2688 L717 146 L710.4843 146.0605 L704.0489 146.4465 L697.7019 147.1501 L691.4514 148.1634 L685.3055 149.4787 L679.2722 151.0882 L673.3596 152.984 L667.5757 155.1583 L661.9288 157.6032 L656.4268 160.311 L645.89 166.4837 L636.03 173.6139 L626.9114 181.639 L618.5989 190.4963 L611.157 200.1232 L604.6505 210.4572 L601.7681 215.8698 L599.1439 221.4357 L596.7857 227.147 L594.7018 232.9959 L592.9003 238.9747 L591.389 245.0755 L590.1763 251.2904 L589.2701 257.6116 L588.6786 264.0314 L588.4097 270.5418 L588.4703 277.0575 L588.8562 283.4929 L589.5598 289.8399 L590.5732 296.0904 L591.8885 302.2364 L593.4979 308.2697 L595.3937 314.1823 L597.568 319.9661 L600.0129 325.613 L602.7207 331.115 L608.8934 341.6518 L616.0237 351.5118 L624.0487 360.6304 L632.906 368.9429 L633.0824 369.0793" clip-path="url(#clipPath2)" stroke="black"/>
      <path fill="black" d="M639.4117 373.972 L632.9757 362.677 L632.2912 368.4677 L626.8597 370.5887 Z" clip-path="url(#clipPath2)" stroke="none"/>
      <path fill="none" d="M803.1687 514.024 L806.8032 510.6885 L814.3811 502.257 L821.1078 493.1562 L826.937 483.456 L831.8218 473.226 L835.716 462.5359 L838.5728 451.4556 L840.3457 440.0546 L840.9882 428.4027 L840.871 422.5045 L840.4537 416.5696 L839.7305 410.607 L838.6956 404.6251 L837.3597 398.7032 L835.7432 392.9185 L833.8549 387.2766 L831.7034 381.7835 L826.6458 371.2669 L820.6401 361.4151 L813.756 352.2747 L806.0634 343.8924 L797.6318 336.3145 L788.5311 329.5878 L778.8308 323.7586 L768.6008 318.8737 L757.9108 314.9796 L746.8304 312.1228 L735.4294 310.3499 L723.7776 309.7074 L717.8793 309.8246 L711.9445 310.2419 L705.9818 310.9651 L699.9999 312 L694.0781 313.3359 L688.2933 314.9524 L682.6514 316.8407 L677.1584 318.9922 L666.6417 324.0498 L656.79 330.0555 L647.6496 336.9395 L639.2672 344.6322 L631.6893 353.0638 L624.9626 362.1645 L619.1335 371.8648 L614.2486 382.0948 L610.3544 392.7848 L607.4977 403.8652 L605.7247 415.2662 L605.0823 426.918 L605.1995 432.8163 L605.6168 438.7511 L606.34 444.7138 L607.3749 450.6956 L608.7108 456.6175 L610.3272 462.4023 L612.2156 468.0442 L614.3671 473.5372 L619.4247 484.0539 L625.4304 493.9056 L632.3144 503.046 L637.1966 508.3659 L637.271 508.4328" clip-path="url(#clipPath2)" stroke="black"/>
      <path fill="black" d="M642.9433 514.0741 L637.9606 502.0669 L636.562 507.7276 L630.909 509.1573 Z" clip-path="url(#clipPath2)" stroke="none"/>
      <path fill="none" d="M769.5764 513.9982 L777.9824 506.7516 L786.2393 498.1195 L793.6216 488.7548 L800.0782 478.7293 L805.5577 468.1151 L810.0087 456.9839 L813.3801 445.4076 L814.6448 439.4751 L815.6204 433.4583 L816.3004 427.3661 L816.6783 421.2076 L816.7479 414.9918 L816.5026 408.7277 L815.936 402.4242 L815.0418 396.0903 L813.8287 389.8097 L812.3155 383.6643 L810.5114 377.6606 L808.4252 371.805 L806.0659 366.1038 L803.4426 360.5634 L800.5643 355.1904 L797.4399 349.9911 L790.4888 340.1393 L782.6613 331.0594 L774.0292 322.8026 L764.6645 315.4202 L754.6391 308.9637 L744.0248 303.4842 L732.8936 299.0331 L721.3173 295.6618 L715.3848 294.397 L709.368 293.4215 L703.2758 292.7415 L697.1174 292.3635 L690.9016 292.294 L684.6374 292.5393 L678.3339 293.1058 L672 294 L665.7194 295.2132 L659.5741 296.7263 L653.5704 298.5305 L647.7147 300.6167 L642.0135 302.9759 L636.4732 305.5992 L631.1002 308.4775 L625.9009 311.602 L616.0491 318.553 L606.9691 326.3806 L598.7123 335.0126 L591.33 344.3773 L584.8734 354.4028 L579.3939 365.017 L574.9428 376.1483 L571.5715 387.7245 L570.3068 393.657 L569.3312 399.6739 L568.6512 405.766 L568.2733 411.9245 L568.2037 418.1403 L568.449 424.4044 L569.0156 430.7079 L569.9097 437.0418 L571.1229 443.3224 L572.636 449.4678 L574.4402 455.4715 L576.5264 461.3271 L578.8857 467.0284 L581.5089 472.5687 L584.3873 477.9417 L587.5117 483.141 L594.4628 492.9928 L602.2903 502.0727 L609.4111 508.8839 L609.4896 508.9459" clip-path="url(#clipPath2)" stroke="black"/>
      <path fill="black" d="M615.645 514.0557 L609.6056 502.5438 L608.7202 508.3071 L603.2182 510.238 Z" clip-path="url(#clipPath2)" stroke="none"/>
      <path fill="none" d="M886.6609 653.9787 L891.3318 651.3397 L900.9229 645.2976 L910.2063 638.8098 L919.166 631.8895 L927.7856 624.55 L936.0488 616.8044 L943.9393 608.666 L951.4409 600.1478 L958.5372 591.2632 L965.212 582.0255 L971.4491 572.4476 L977.2321 562.543 L982.5447 552.3248 L987.3707 541.8061 L991.6938 531.0002 L995.4977 519.9204 L998.7661 508.5797 L1001.4827 496.9915 L1003.6313 485.1689 L1005.1956 473.1252 L1006.1492 461.0178 L1006.4855 449.0062 L1006.2176 437.1068 L1005.3587 425.3359 L1003.9221 413.7097 L1001.9208 402.2445 L999.3683 390.9565 L996.2776 379.8622 L992.6621 368.9777 L988.5348 358.3193 L983.9089 347.9034 L978.7979 337.7461 L973.2146 327.8638 L967.1725 318.2728 L960.6847 308.9893 L953.7644 300.0297 L946.4249 291.4101 L938.6793 283.1469 L930.5408 275.2564 L922.0227 267.7548 L913.1381 260.6584 L903.9003 253.9836 L894.3225 247.7466 L884.4179 241.9636 L874.1996 236.651 L863.681 231.825 L852.8751 227.5019 L841.7953 223.698 L830.4547 220.4296 L818.8664 217.7129 L807.0438 215.5643 L795.0001 214 L782.8926 213.0464 L770.8811 212.7101 L758.9817 212.9781 L747.2108 213.837 L735.5845 215.2736 L724.1193 217.2748 L712.8314 219.8273 L701.7371 222.918 L690.8526 226.5336 L680.1942 230.6609 L669.7783 235.2867 L659.621 240.3978 L649.7387 245.981 L640.1477 252.0231 L630.8642 258.511 L621.9045 265.4312 L613.285 272.7708 L605.0218 280.5164 L597.1313 288.6548 L589.6297 297.1729 L582.5333 306.0575 L575.8585 315.2953 L569.6215 324.8731 L563.8384 334.7777 L558.5258 344.996 L553.6998 355.5147 L549.3768 366.3205 L545.5729 377.4004 L542.3044 388.741 L539.5878 400.3293 L537.4391 412.1518 L535.8749 424.1956 L534.9213 436.303 L534.585 448.3146 L534.853 460.214 L535.7119 471.9849 L537.1485 483.6111 L539.1497 495.0763 L541.7022 506.3642 L544.7928 517.4586 L548.4084 528.3431 L552.5358 539.0015 L557.1616 549.4174 L562.2727 559.5746 L567.8559 569.4569 L573.898 579.048 L580.3858 588.3314 L587.3061 597.2911 L594.6456 605.9107 L602.3912 614.1739 L610.5297 622.0644 L619.0479 629.566 L627.9324 636.6623 L637.1702 643.3372 L646.748 649.5742 L647.3839 649.9455" clip-path="url(#clipPath2)" stroke="black"/>
      <path fill="black" d="M654.2925 653.9792 L646.4506 643.6107 L646.5203 649.4413 L641.4085 652.2465 Z" clip-path="url(#clipPath2)" stroke="none"/>
      <path fill="none" d="M715.7654 653.9788 L767 196 L612.3333 273 L705.345 646.2374" clip-path="url(#clipPath2)" stroke="black"/>
      <path fill="black" d="M707.2795 654 L709.2294 641.1471 L705.1032 645.2671 L699.5262 643.5651 Z" clip-path="url(#clipPath2)" stroke="none"/>
      <path fill="none" d="M918.333 794 L922.1354 792.1348 L934.5229 785.3014 L946.5533 777.8923 L958.2061 769.9238 L969.4606 761.4122 L980.2967 752.3737 L990.6937 742.8246 L1000.6312 732.7811 L1010.0887 722.2596 L1019.0459 711.2761 L1027.4822 699.8471 L1035.3771 687.9888 L1042.7102 675.7173 L1049.4611 663.0491 L1055.6093 650.0002 L1061.1343 636.587 L1066.0156 622.8258 L1070.2329 608.7327 L1073.7656 594.3241 L1076.5934 579.6161 L1078.6957 564.6252 L1080.0376 549.5471 L1080.6088 534.5807 L1080.4257 519.7465 L1079.5043 505.0648 L1077.861 490.5562 L1075.5121 476.2411 L1072.4738 462.14 L1068.7622 448.2733 L1064.3938 434.6616 L1059.3848 421.3252 L1053.7513 408.2846 L1047.5098 395.5603 L1040.6763 383.1727 L1033.2671 371.1423 L1025.2986 359.4896 L1016.787 348.235 L1007.7485 337.3989 L998.1995 327.002 L988.156 317.0644 L977.6344 307.6069 L966.651 298.6497 L955.222 290.2135 L943.3636 282.3185 L931.0922 274.9854 L918.424 268.2345 L905.3751 262.0864 L891.9619 256.5613 L878.2006 251.68 L864.1076 247.4627 L849.699 243.93 L834.991 241.1022 L820 239 L804.9219 237.6581 L789.9556 237.0868 L775.1213 237.27 L760.4396 238.1913 L745.931 239.8346 L731.616 242.1835 L717.5148 245.2219 L703.6482 248.9334 L690.0364 253.3018 L676.7 258.3109 L663.6594 263.9443 L650.9351 270.1859 L638.5475 277.0194 L626.5172 284.4285 L614.8644 292.397 L603.6099 300.9086 L592.7738 309.9471 L582.3768 319.4962 L572.4393 329.5396 L562.9818 340.0612 L554.0246 351.0446 L545.5883 362.4736 L537.6934 374.332 L530.3603 386.6034 L523.6094 399.2717 L517.4612 412.3206 L511.9362 425.7337 L507.0548 439.495 L502.8376 453.588 L499.3048 467.9967 L496.4771 482.7046 L494.3749 497.6956 L493.0329 512.7737 L492.4617 527.7401 L492.6448 542.5743 L493.5662 557.256 L495.2095 571.7646 L497.5584 586.0797 L500.5968 600.1808 L504.3083 614.0474 L508.6767 627.6592 L513.6857 640.9956 L519.3192 654.0362 L525.5608 666.7605 L532.3943 679.1481 L539.8034 691.1785 L547.7719 702.8312 L556.2835 714.0858 L565.322 724.9218 L574.871 735.3188 L584.9145 745.2563 L595.4361 754.7139 L606.4195 763.671 L617.8485 772.1073 L629.7068 780.0022 L641.9783 787.3353 L647.4132 790.2316" clip-path="url(#clipPath2)" stroke="black"/>
      <path fill="black" d="M654.4733 793.994 L646.2346 783.9379 L646.5307 789.7614 L641.5317 792.7631 Z" clip-path="url(#clipPath2)" stroke="none"/>
      <path fill="none" d="M881.2902 794.0093 L893.3146 788.1978 L906.0443 781.2721 L918.4115 773.7546 L930.3952 765.662 L941.9744 757.0106 L953.128 747.8171 L963.8349 738.0978 L974.0741 727.8695 L983.8245 717.1486 L993.0651 705.9515 L1001.7748 694.2949 L1009.9326 682.1954 L1017.5175 669.6693 L1024.5082 656.7332 L1030.8839 643.4037 L1036.6234 629.6974 L1041.7057 615.6306 L1046.1097 601.22 L1049.8145 586.4821 L1052.7988 571.4333 L1055.0417 556.0903 L1056.5065 540.6535 L1057.181 525.3265 L1057.082 510.1304 L1056.226 495.0861 L1054.6294 480.2148 L1052.3088 465.5376 L1049.2809 451.0754 L1045.562 436.8493 L1041.1686 422.8804 L1036.1174 409.1897 L1030.4249 395.7983 L1024.1075 382.7272 L1017.1818 369.9975 L1009.6644 357.6303 L1001.5717 345.6466 L992.9203 334.0674 L983.7268 322.9138 L974.0076 312.2069 L963.7792 301.9677 L953.0583 292.2173 L941.8613 282.9767 L930.2047 274.2669 L918.1051 266.1092 L905.579 258.5244 L892.643 251.5336 L879.3135 245.1579 L865.6071 239.4184 L851.5403 234.3361 L837.1297 229.9321 L822.3918 226.2273 L807.343 223.243 L792 221 L776.5632 219.5353 L761.2363 218.8608 L746.0401 218.9598 L730.9958 219.8158 L716.1246 221.4124 L701.4473 223.7329 L686.9851 226.7609 L672.759 230.4798 L658.7901 234.8732 L645.0994 239.9244 L631.708 245.6169 L618.637 251.9343 L605.9073 258.86 L593.54 266.3774 L581.5563 274.4701 L569.9771 283.1214 L558.8235 292.315 L548.1166 302.0342 L537.8774 312.2626 L528.127 322.9835 L518.8864 334.1805 L510.1767 345.8371 L502.0189 357.9367 L494.4341 370.4628 L487.4433 383.3988 L481.0677 396.7283 L475.3282 410.4347 L470.2458 424.5014 L465.8418 438.9121 L462.1371 453.65 L459.1527 468.6988 L456.9097 484.0418 L455.4451 499.4786 L454.7705 514.8055 L454.8695 530.0017 L455.7256 545.0459 L457.3221 559.9172 L459.6427 574.5945 L462.6707 589.0566 L466.3896 603.2828 L470.7829 617.2516 L475.8341 630.9424 L481.5267 644.3337 L487.844 657.4048 L494.7697 670.1345 L502.2871 682.5018 L510.3798 694.4855 L519.0312 706.0646 L528.2247 717.2183 L537.944 727.9252 L548.1723 738.1644 L558.8932 747.9148 L570.0903 757.1554 L581.7468 765.8651 L593.8464 774.0229 L606.3725 781.6077 L619.3085 788.5984 L623.3644 790.5385" clip-path="url(#clipPath2)" stroke="black"/>
      <path fill="black" d="M630.5814 793.9904 L621.9134 784.3019 L622.4623 790.1069 L617.5985 793.3231 Z" clip-path="url(#clipPath2)" stroke="none"/>
      <path fill="none" d="M525.3849 1008.0052 L539.9656 1010.858 L559.4246 1013.678 L578.9177 1015.5334 L598.4103 1016.4337 L617.868 1016.3882 L637.256 1015.4064 L656.5401 1013.4977 L675.6855 1010.6714 L694.6577 1006.9371 L713.4223 1002.304 L731.9447 996.7816 L750.1903 990.3793 L768.1247 983.1066 L785.7132 974.9727 L802.9214 965.9872 L819.7147 956.1594 L836.0586 945.4987 L851.9186 934.0145 L867.26 921.7162 L882.0485 908.6134 L896.2494 894.7153 L909.8282 880.0313 L922.7504 864.5709 L934.9814 848.3434 L946.4868 831.3584 L957.2319 813.6251 L967.0671 795.3715 L975.8719 776.842 L983.6557 758.0712 L990.4279 739.0938 L996.198 719.9441 L1000.9753 700.6568 L1004.7692 681.2664 L1007.5892 661.8073 L1009.4446 642.3142 L1010.3448 622.8215 L1010.2994 603.364 L1009.3176 583.9758 L1007.4089 564.6918 L1004.5826 545.5464 L1000.8483 526.5742 L996.2151 507.8096 L990.6928 489.2872 L984.2905 471.0416 L977.0178 453.1072 L968.8839 435.5187 L959.8983 418.3105 L950.0705 401.5172 L939.4098 385.1733 L927.9257 369.3134 L915.6274 353.9719 L902.5245 339.1834 L888.6264 324.9825 L873.9424 311.4037 L858.4821 298.4815 L842.2546 286.2505 L825.2695 274.7451 L807.5363 264 L789.2826 254.1648 L770.7531 245.36 L751.9824 237.5762 L733.0049 230.804 L713.8553 225.0339 L694.5679 220.2566 L675.1775 216.4627 L655.7184 213.6427 L636.2253 211.7873 L616.7327 210.8871 L597.2751 210.9325 L577.887 211.9143 L558.603 213.823 L539.4576 216.6493 L520.4854 220.3837 L501.7207 225.0167 L483.1984 230.5391 L464.9527 236.9414 L447.0184 244.2142 L429.4298 252.348 L412.2216 261.3336 L395.4283 271.1614 L379.0845 281.8221 L363.2245 293.3062 L347.8831 305.6045 L333.0946 318.7073 L318.8937 332.6055 L305.3149 347.2894 L292.3927 362.7498 L280.1617 378.9773 L268.6563 395.9623 L257.9112 413.6956 L248.076 431.9493 L239.2712 450.4788 L231.4874 469.2495 L224.7151 488.227 L218.9451 507.3766 L214.1678 526.6639 L210.3739 546.0544 L207.5539 565.5134 L205.6985 585.0065 L204.7982 604.4992 L204.8437 623.9568 L205.8255 643.3449 L207.7342 662.6289 L210.5604 681.7743 L214.2948 700.7466 L218.9279 719.5112 L224.4503 738.0335 L230.8526 756.2792 L238.1253 774.2135 L246.2592 791.8021 L255.2447 809.0103 L265.0726 825.8035 L275.7332 842.1475 L287.2174 858.0074 L299.5156 873.3489 L312.6185 888.1373 L326.5166 902.3382 L341.2006 915.917 L356.661 928.8392 L357.1501 929.2078" clip-path="url(#clipPath2)" stroke="black"/>
      <path fill="black" d="M363.5386 934.0231 L356.9654 922.8074 L356.3515 928.6059 L350.9463 930.793 Z" clip-path="url(#clipPath2)" stroke="none"/>
      <path fill="none" d="M515.5309 1008.0038 L529.1948 1009.9429 L549.0451 1011.7734 L568.892 1012.6316 L588.7004 1012.527 L608.4353 1011.4694 L628.0614 1009.4685 L647.5436 1006.5339 L666.8469 1002.6754 L685.9361 997.9026 L704.776 992.2251 L723.3315 985.6527 L741.5676 978.195 L759.449 969.8618 L776.9407 960.6626 L794.0074 950.6072 L810.6142 939.7053 L826.7258 927.9665 L842.3072 915.4005 L857.3231 902.017 L871.7385 887.8257 L885.5183 872.8362 L898.6273 857.0582 L911.0303 840.5015 L922.6923 823.1756 L933.5781 805.0903 L943.5361 786.4779 L952.4442 767.5878 L960.3121 748.4553 L967.1497 729.1152 L972.9664 709.6028 L977.7722 689.9534 L981.5764 670.2018 L984.389 650.3833 L986.2195 630.533 L987.0776 610.6862 L986.973 590.8777 L985.9155 571.1428 L983.9146 551.5167 L980.98 532.0345 L977.1215 512.7312 L972.3486 493.642 L966.6711 474.8021 L960.0988 456.2466 L952.6411 438.0105 L944.3078 420.1291 L935.1086 402.6374 L925.0533 385.5706 L914.1514 368.9639 L902.4125 352.8523 L889.8466 337.2709 L876.4631 322.255 L862.2717 307.8396 L847.2822 294.0598 L831.5043 280.9509 L814.9475 268.5478 L797.6216 256.8858 L779.5363 246 L760.924 236.0421 L742.0339 227.134 L722.9013 219.266 L703.5612 212.4285 L684.0489 206.6117 L664.3994 201.806 L644.6478 198.0017 L624.8293 195.1891 L604.9791 193.3586 L585.1322 192.5005 L565.3237 192.6051 L545.5889 193.6627 L525.9628 195.6636 L506.4805 198.5981 L487.1772 202.4567 L468.0881 207.2295 L449.2481 212.907 L430.6926 219.4794 L412.4565 226.9371 L394.5751 235.2703 L377.0835 244.4695 L360.0167 254.5248 L343.4099 265.4268 L327.2983 277.1656 L311.717 289.7316 L296.701 303.1151 L282.2856 317.3064 L268.5059 332.2959 L255.3969 348.0739 L242.9939 364.6306 L231.3319 381.9565 L220.446 400.0418 L210.4881 418.6542 L201.58 437.5442 L193.712 456.6768 L186.8745 476.0169 L181.0577 495.5292 L176.252 515.1787 L172.4478 534.9303 L169.6352 554.7488 L167.8047 574.5991 L166.9466 594.4459 L167.0511 614.2544 L168.1087 633.9893 L170.1096 653.6154 L173.0442 673.0976 L176.9027 692.4009 L181.6756 711.4901 L187.353 730.33 L193.9254 748.8855 L201.3831 767.1216 L209.7164 785.003 L218.9155 802.4946 L228.9709 819.5614 L239.8728 836.1682 L251.6116 852.2798 L264.1776 867.8611 L277.5611 882.8771 L291.7524 897.2925 L306.7419 911.0723 L322.5199 924.1812 L329.2138 929.1958" clip-path="url(#clipPath2)" stroke="black"/>
      <path fill="black" d="M335.6165 933.9922 L329.0102 922.7959 L328.4135 928.5963 L323.0147 930.7993 Z" clip-path="url(#clipPath2)" stroke="none"/>
      <path fill="none" d="M971.1581 1073.9951 L982.4711 1068.9883 L1000.1899 1060.1052 L1017.4404 1050.3965 L1034.193 1039.8839 L1050.4183 1028.589 L1066.0867 1016.5334 L1081.1686 1003.7388 L1095.6344 990.2268 L1109.4548 976.019 L1122.6001 961.137 L1135.0408 945.6024 L1146.7473 929.437 L1157.6902 912.6622 L1167.8398 895.2999 L1177.1667 877.3714 L1185.6412 858.8986 L1193.234 839.903 L1199.9153 820.4061 L1205.6558 800.4299 L1210.4257 779.9956 L1214.1956 759.1251 L1216.906 738.0908 L1218.5312 717.1703 L1219.0931 696.3931 L1218.6132 675.7889 L1217.113 655.3871 L1214.6143 635.2173 L1211.1387 615.3091 L1206.7076 595.6919 L1201.343 576.3953 L1195.0663 557.4489 L1187.8992 538.8821 L1179.8632 520.7245 L1170.9801 503.0057 L1161.2714 485.7552 L1150.7588 469.0026 L1139.4639 452.7773 L1127.4083 437.109 L1114.6138 422.0271 L1101.1017 407.5612 L1086.8938 393.7408 L1072.0118 380.5955 L1056.4773 368.1548 L1040.3119 356.4483 L1023.5371 345.5054 L1006.1747 335.3558 L988.2463 326.0289 L969.7734 317.5544 L950.7778 309.9616 L931.281 303.2803 L911.3047 297.5399 L890.8705 292.77 L870 289 L848.9657 286.2896 L828.0452 284.6643 L807.268 284.1025 L786.6638 284.5825 L766.262 286.0826 L746.0922 288.5813 L726.184 292.057 L706.5668 296.4879 L687.2701 301.8526 L668.3237 308.1293 L649.757 315.2964 L631.5994 323.3324 L613.8806 332.2155 L596.6301 341.9242 L579.8775 352.4368 L563.6522 363.7317 L547.9838 375.7873 L532.902 388.5819 L518.436 402.0939 L504.6157 416.3018 L491.4704 431.1837 L479.0297 446.7183 L467.3232 462.8838 L456.3803 479.6585 L446.2307 497.0209 L436.9038 514.9493 L428.4293 533.4222 L420.8365 552.4178 L414.1552 571.9146 L408.4148 591.8909 L403.6448 612.3251 L399.8749 633.1956 L397.1645 654.2299 L395.5392 675.1505 L394.9774 695.9276 L395.4573 716.5319 L396.9575 736.9336 L399.4562 757.1034 L402.9319 777.0117 L407.3628 796.6288 L412.7275 815.9255 L419.0042 834.8719 L426.1713 853.4387 L434.2073 871.5963 L443.0904 889.315 L452.7991 906.5655 L463.3117 923.3181 L474.6066 939.5434 L486.6621 955.2118 L499.4568 970.2936 L512.9688 984.7596 L527.1766 998.58 L542.0587 1011.7252 L557.5932 1024.1659 L573.7586 1035.8724 L590.5334 1046.8153 L607.8958 1056.965 L625.8242 1066.2919 L635.33 1070.6526" clip-path="url(#clipPath2)" stroke="black"/>
      <path fill="black" d="M642.6013 1073.9884 L633.7792 1064.4401 L634.4211 1070.2356 L629.6094 1073.5293 Z" clip-path="url(#clipPath2)" stroke="none"/>
      <path fill="none" d="M714.9308 1073.9858 L842 271 L1092 308 L735.2977 1066.7601" clip-path="url(#clipPath2)" stroke="black"/>
      <path fill="black" d="M731.8942 1074 L741.5244 1065.2675 L735.7232 1065.8551 L732.4746 1061.0129 Z" clip-path="url(#clipPath2)" stroke="none"/>
      <path fill="none" d="M535.96 633.0073 L530.5941 630.259 L516.5521 623.9108 L502.1566 618.2349 L487.4275 613.251 L472.3846 608.9794 L457.0479 605.4396 L441.4372 602.6519 L425.5726 600.636 L409.474 599.4118 L393.1612 598.9993 L376.8483 599.4118 L360.7497 600.636 L344.8851 602.6519 L329.2744 605.4396 L313.9377 608.9794 L298.8948 613.251 L284.1657 618.2349 L269.7702 623.9108 L255.7282 630.259 L242.0598 637.2596 L228.7848 644.8926 L215.923 653.1381 L203.4946 661.9761 L191.5193 671.3869 L180.017 681.3504 L169.0078 691.8467 L158.5115 702.856 L148.548 714.3582 L139.1373 726.3335 L130.2992 738.762 L122.0537 751.6237 L114.4207 764.8987 L107.4202 778.5671 L101.072 792.6091 L95.396 807.0046 L90.4122 821.7338 L86.1405 836.7767 L82.6008 852.1133 L79.813 867.724 L77.7971 883.5886 L76.573 899.6873 L76.1605 916.0001 L76.573 932.3129 L77.7971 948.4116 L79.813 964.2761 L82.6008 979.8868 L86.1405 995.2234 L90.4122 1010.2664 L95.396 1024.9955 L101.072 1039.391 L107.4202 1053.433 L114.4208 1067.1014 L122.0538 1080.3765 L130.2992 1093.2382 L139.1373 1105.6666 L148.548 1117.642 L158.5115 1129.1442 L169.0079 1140.1534 L180.0171 1150.6497 L191.5193 1160.6132 L203.4946 1170.0239 L215.9231 1178.8621 L228.7848 1187.1075 L242.0599 1194.7405 L255.7283 1201.7411 L269.7702 1208.0892 L284.1657 1213.7653 L298.8949 1218.749 L313.9378 1223.0208 L329.2745 1226.5604 L344.8851 1229.3481 L360.7497 1231.3641 L376.8484 1232.5883 L393.1612 1233.0007 L409.474 1232.5883 L425.5727 1231.3641 L441.4373 1229.3481 L457.0479 1226.5604 L472.3846 1223.0208 L487.4275 1218.749 L502.1567 1213.7653 L516.5522 1208.0892 L528.7964 1202.5537 L528.8854 1202.5082" clip-path="url(#clipPath2)" stroke="black"/>
      <path fill="black" d="M536.0496 1198.9482 L523.0782 1199.8105 L527.9899 1202.9532 L527.5283 1208.7659 Z" clip-path="url(#clipPath2)" stroke="none"/>
      <path fill="none" d="M997.0075 188.4914 L997.8247 183.8228 L998.8047 176.0598 L999.4135 168.2588 L999.6496 160.4344 L999.5115 152.601 L998.9979 144.7729 L998.1071 136.9645 L996.8378 129.1904 L995.1885 121.4648 L993.1576 113.8022 L990.7438 106.2171 L987.9455 98.7238 L984.7613 91.3368 L981.1897 84.0704 L977.2292 76.9392 L972.8785 69.9574 L968.1359 63.1395 L963 56.5 L957.5352 50.1285 L951.8162 44.1062 L945.8575 38.4344 L939.6735 33.1147 L933.2787 28.1486 L926.6874 23.5375 L919.9141 19.2829 L912.9731 15.3862 L905.879 11.849 L898.646 8.6727 L891.2886 5.8588 L883.8214 3.4087 L876.2585 1.3239 L868.6144 -0.3941 L860.9037 -1.7438 L853.1407 -2.7238 L845.3398 -3.3326 L837.5154 -3.5687 L829.6819 -3.4306 L821.8538 -2.917 L814.0455 -2.0262 L806.2713 -0.7569 L798.5458 0.8925 L790.8832 2.9233 L783.2981 5.3372 L775.8048 8.1354 L768.4177 11.3196 L761.1514 14.8912 L754.0201 18.8517 L747.0383 23.2025 L740.2205 27.9451 L733.5809 33.0809 L727.2095 38.5458 L721.1871 44.2648 L715.5154 50.2235 L710.1957 56.4074 L705.2296 62.8023 L700.6185 69.3935 L696.3638 76.1669 L692.4672 83.1078 L688.93 90.202 L685.7537 97.435 L682.9397 104.7923 L680.4896 112.2596 L678.4048 119.8225 L676.6869 127.4665 L675.3372 135.1772 L674.3572 142.9402 L673.7484 150.7411 L673.5123 158.5656 L673.6503 166.399 L674.164 174.2271 L674.8907 180.5974 L674.9068 180.6961" clip-path="url(#clipPath2)" stroke="black"/>
      <path fill="black" d="M676.1262 188.6026 L679.2387 175.9807 L674.7544 179.7078 L669.3556 177.5049 Z" clip-path="url(#clipPath2)" stroke="none"/>
      <path fill="none" d="M997.0075 40.4914 L997.8247 35.8228 L998.8047 28.0598 L999.4135 20.2588 L999.6496 12.4344 L999.5115 4.601 L998.9979 -3.2271 L998.1071 -11.0355 L996.8378 -18.8096 L995.1885 -26.5352 L993.1576 -34.1978 L990.7438 -41.7829 L987.9455 -49.2762 L984.7613 -56.6632 L981.1897 -63.9296 L977.2292 -71.0608 L972.8785 -78.0426 L968.1359 -84.8605 L963 -91.5 L957.5352 -97.8715 L951.8162 -103.8938 L945.8575 -109.5656 L939.6735 -114.8853 L933.2787 -119.8514 L926.6874 -124.4625 L919.9141 -128.7171 L912.9731 -132.6138 L905.879 -136.151 L898.646 -139.3273 L891.2886 -142.1412 L883.8214 -144.5913 L876.2585 -146.6761 L868.6144 -148.3941 L860.9037 -149.7438 L853.1407 -150.7238 L845.3398 -151.3326 L837.5154 -151.5686 L829.6819 -151.4306 L821.8538 -150.9169 L814.0455 -150.0262 L806.2713 -148.7569 L798.5458 -147.1075 L790.8832 -145.0767 L783.2981 -142.6628 L775.8048 -139.8645 L768.4177 -136.6803 L761.1514 -133.1088 L754.0201 -129.1483 L747.0383 -124.7975 L740.2205 -120.0549 L733.5809 -114.9191 L727.2095 -109.4542 L721.1871 -103.7352 L715.5154 -97.7765 L710.1957 -91.5926 L705.2296 -85.1977 L700.6185 -78.6065 L696.3638 -71.8331 L692.4672 -64.8922 L688.93 -57.798 L685.7537 -50.565 L682.9397 -43.2077 L680.4896 -35.7404 L678.4048 -28.1775 L676.6869 -20.5335 L675.3372 -12.8228 L674.3572 -5.0598 L673.7484 2.7412 L673.5123 10.5656 L673.6503 18.399 L674.164 26.2271 L674.8907 32.5974 L674.9068 32.6961" clip-path="url(#clipPath2)" stroke="black"/>
      <path fill="black" d="M676.1262 40.6026 L679.2387 27.9808 L674.7544 31.7078 L669.3556 29.5049 Z" clip-path="url(#clipPath2)" stroke="none"/>
      <path fill="none" d="M710.1619 188.5 L710.1619 477" clip-path="url(#clipPath2)" stroke="black"/>
      <path fill="black" d="M710.1619 485 L715.1619 473 L710.1619 476 L705.1619 473 Z" clip-path="url(#clipPath2)" stroke="none"/>
      <path fill="none" d="M1164.6619 1008.0052 L1179.2426 1010.858 L1198.7017 1013.678 L1218.1947 1015.5334 L1237.6874 1016.4337 L1257.145 1016.3882 L1276.5331 1015.4064 L1295.8171 1013.4977 L1314.9625 1010.6714 L1333.9348 1006.9371 L1352.6993 1002.304 L1371.2217 996.7816 L1389.4674 990.3793 L1407.4017 983.1066 L1424.9902 974.9727 L1442.1985 965.9872 L1458.9917 956.1594 L1475.3357 945.4987 L1491.1956 934.0145 L1506.5371 921.7162 L1521.3256 908.6134 L1535.5264 894.7153 L1549.1052 880.0313 L1562.0275 864.5709 L1574.2584 848.3434 L1585.7638 831.3584 L1596.5089 813.6251 L1606.3441 795.3715 L1615.1489 776.842 L1622.9327 758.0712 L1629.705 739.0938 L1635.475 719.9441 L1640.2523 700.6568 L1644.0463 681.2664 L1646.8662 661.8073 L1648.7216 642.3142 L1649.6219 622.8215 L1649.5764 603.364 L1648.5946 583.9758 L1646.6859 564.6918 L1643.8596 545.5464 L1640.1252 526.5742 L1635.4922 507.8096 L1629.9698 489.2872 L1623.5675 471.0416 L1616.2948 453.1072 L1608.1609 435.5187 L1599.1754 418.3105 L1589.3475 401.5172 L1578.6869 385.1733 L1567.2026 369.3134 L1554.9044 353.9719 L1541.8016 339.1834 L1527.9034 324.9825 L1513.2195 311.4037 L1497.7592 298.4815 L1481.5316 286.2505 L1464.5466 274.7451 L1446.8134 264 L1428.5597 254.1648 L1410.0302 245.36 L1391.2594 237.5762 L1372.282 230.804 L1353.1323 225.0339 L1333.845 220.2566 L1314.4546 216.4627 L1294.9955 213.6427 L1275.5024 211.7873 L1256.0098 210.8871 L1236.5521 210.9325 L1217.1641 211.9143 L1197.88 213.823 L1178.7346 216.6493 L1159.7623 220.3837 L1140.9978 225.0167 L1122.4755 230.5391 L1104.2297 236.9414 L1086.2954 244.2142 L1068.7069 252.348 L1051.4987 261.3336 L1034.7054 271.1614 L1018.3615 281.8221 L1002.5015 293.3062 L987.1601 305.6045 L972.3716 318.7073 L958.1707 332.6055 L944.5919 347.2894 L931.6697 362.7498 L919.4387 378.9773 L907.9333 395.9623 L897.1882 413.6956 L887.353 431.9493 L878.5482 450.4788 L870.7644 469.2495 L863.9922 488.227 L858.2221 507.3766 L853.4448 526.6639 L849.6509 546.0544 L846.8309 565.5134 L844.9755 585.0065 L844.0753 604.4992 L844.1207 623.9568 L845.1025 643.3449 L847.0112 662.6289 L849.8375 681.7743 L853.5718 700.7466 L858.205 719.5112 L863.7273 738.0335 L870.1296 756.2792 L877.4023 774.2135 L885.5363 791.8021 L894.5218 809.0103 L904.3496 825.8035 L915.0103 842.1475 L926.4944 858.0074 L938.7927 873.3489 L951.8956 888.1373 L965.7937 902.3382 L980.4777 915.917 L995.938 928.8392 L996.4271 929.2078" clip-path="url(#clipPath2)" stroke="black"/>
      <path fill="black" d="M1002.8157 934.0231 L996.2424 922.8074 L995.6285 928.6059 L990.2233 930.793 Z" clip-path="url(#clipPath2)" stroke="none"/>
      <path fill="none" d="M1154.808 1008.0038 L1168.4718 1009.9429 L1188.3221 1011.7734 L1208.1691 1012.6316 L1227.9775 1012.527 L1247.7123 1011.4694 L1267.3385 1009.4685 L1286.8207 1006.5339 L1306.124 1002.6754 L1325.2131 997.9026 L1344.0531 992.2251 L1362.6086 985.6527 L1380.8446 978.195 L1398.7261 969.8618 L1416.2178 960.6626 L1433.2845 950.6072 L1449.8912 939.7053 L1466.0029 927.9665 L1481.5842 915.4005 L1496.6002 902.017 L1511.0156 887.8257 L1524.7953 872.8362 L1537.9043 857.0582 L1550.3074 840.5015 L1561.9694 823.1756 L1572.8552 805.0903 L1582.8131 786.4779 L1591.7212 767.5878 L1599.5892 748.4553 L1606.4268 729.1152 L1612.2435 709.6028 L1617.0492 689.9534 L1620.8535 670.2018 L1623.666 650.3833 L1625.4965 630.533 L1626.3546 610.6862 L1626.2501 590.8777 L1625.1925 571.1428 L1623.1917 551.5167 L1620.2571 532.0345 L1616.3984 512.7312 L1611.6256 493.642 L1605.9482 474.8021 L1599.3757 456.2466 L1591.9181 438.0105 L1583.5848 420.1291 L1574.3857 402.6374 L1564.3303 385.5706 L1553.4283 368.9639 L1541.6896 352.8523 L1529.1237 337.2709 L1515.7401 322.255 L1501.5487 307.8396 L1486.5593 294.0598 L1470.7812 280.9509 L1454.2245 268.5478 L1436.8987 256.8858 L1418.8134 246 L1400.2009 236.0421 L1381.3109 227.134 L1362.1783 219.266 L1342.8383 212.4285 L1323.3259 206.6117 L1303.6764 201.806 L1283.9248 198.0017 L1264.1064 195.1891 L1244.2561 193.3586 L1224.4092 192.5005 L1204.6007 192.6051 L1184.866 193.6627 L1165.2397 195.6636 L1145.7576 198.5981 L1126.4542 202.4567 L1107.3651 207.2295 L1088.5251 212.907 L1069.9696 219.4794 L1051.7336 226.9371 L1033.8522 235.2703 L1016.3605 244.4695 L999.2938 254.5248 L982.687 265.4268 L966.5754 277.1656 L950.994 289.7316 L935.9781 303.1151 L921.5627 317.3064 L907.7829 332.2959 L894.674 348.0739 L882.2709 364.6306 L870.6089 381.9565 L859.7231 400.0418 L849.7651 418.6542 L840.8571 437.5442 L832.9891 456.6768 L826.1516 476.0169 L820.3348 495.5292 L815.5291 515.1787 L811.7248 534.9303 L808.9122 554.7488 L807.0817 574.5991 L806.2236 594.4459 L806.3282 614.2544 L807.3857 633.9893 L809.3867 653.6154 L812.3212 673.0976 L816.1797 692.4009 L820.9526 711.4901 L826.6301 730.33 L833.2025 748.8855 L840.6602 767.1216 L848.9934 785.003 L858.1926 802.4946 L868.2479 819.5614 L879.1498 836.1682 L890.8887 852.2798 L903.4547 867.8611 L916.8381 882.8771 L931.0295 897.2925 L946.019 911.0723 L961.7969 924.1812 L968.4909 929.1958" clip-path="url(#clipPath2)" stroke="black"/>
      <path fill="black" d="M974.8936 933.9922 L968.2873 922.7959 L967.6906 928.5963 L962.2918 930.7993 Z" clip-path="url(#clipPath2)" stroke="none"/>
      <path fill="none" d="M961.5632 1257.0908 L972.8762 1252.084 L990.595 1243.2009 L1007.8455 1233.4922 L1024.598 1222.9796 L1040.8234 1211.6847 L1056.4917 1199.6292 L1071.5736 1186.8346 L1086.0396 1173.3225 L1099.8599 1159.1146 L1113.0051 1144.2327 L1125.4459 1128.6981 L1137.1525 1112.5327 L1148.0952 1095.7579 L1158.2449 1078.3955 L1167.5718 1060.4672 L1176.0463 1041.9943 L1183.639 1022.9987 L1190.3203 1003.5018 L1196.0608 983.5256 L1200.8307 963.0913 L1204.6007 942.2208 L1207.311 921.1865 L1208.9363 900.266 L1209.4982 879.4888 L1209.0182 858.8846 L1207.5181 838.4828 L1205.0193 818.313 L1201.5437 798.4048 L1197.1127 778.7876 L1191.748 759.491 L1185.4713 740.5446 L1178.3042 721.9778 L1170.2683 703.8202 L1161.3851 686.1014 L1151.6765 668.851 L1141.1639 652.0983 L1129.869 635.873 L1117.8134 620.2047 L1105.0188 605.1228 L1091.5067 590.6569 L1077.299 576.8365 L1062.4169 563.6912 L1046.8823 551.2505 L1030.7169 539.5439 L1013.9422 528.6011 L996.5798 518.4515 L978.6514 509.1246 L960.1785 500.6501 L941.1829 493.0573 L921.6861 486.376 L901.7098 480.6356 L881.2756 475.8657 L860.4051 472.0957 L839.3707 469.3853 L818.4502 467.76 L797.6731 467.1982 L777.0688 467.6782 L756.6671 469.1783 L736.4973 471.677 L716.589 475.1527 L696.9718 479.5836 L677.6752 484.9483 L658.7288 491.225 L640.162 498.3922 L622.0045 506.4281 L604.2856 515.3112 L587.0352 525.0199 L570.2825 535.5325 L554.0573 546.8274 L538.3889 558.883 L523.307 571.6776 L508.8411 585.1896 L495.0208 599.3975 L481.8754 614.2795 L469.4348 629.814 L457.7282 645.9794 L446.7853 662.7542 L436.6357 680.1166 L427.3089 698.045 L418.8343 716.5179 L411.2416 735.5135 L404.5603 755.0103 L398.8199 774.9866 L394.0499 795.4208 L390.2799 816.2913 L387.5696 837.3256 L385.9443 858.2462 L385.3824 879.0233 L385.8624 899.6276 L387.3625 920.0293 L389.8613 940.1991 L393.3369 960.1074 L397.7679 979.7245 L403.1325 999.0212 L409.4092 1017.9676 L416.5764 1036.5344 L424.6123 1054.6919 L433.4955 1072.4108 L443.2041 1089.6613 L453.7167 1106.4138 L465.0116 1122.6392 L477.0672 1138.3075 L489.8618 1153.3894 L503.3739 1167.8552 L517.5817 1181.6757 L532.4637 1194.8209 L547.9982 1207.2616 L564.1637 1218.9681 L580.9384 1229.911 L598.3008 1240.0607 L616.2292 1249.3876 L625.735 1253.7483" clip-path="url(#clipPath2)" stroke="black"/>
      <path fill="black" d="M633.0063 1257.0841 L624.1842 1247.5358 L624.8261 1253.3313 L620.0145 1256.625 Z" clip-path="url(#clipPath2)" stroke="none"/>
      <path fill="none" d="M705.3359 1257.0815 L832.4051 454.0957 L1082.405 491.0957 L725.7028 1249.8558" clip-path="url(#clipPath2)" stroke="black"/>
      <path fill="black" d="M722.2992 1257.0957 L731.9294 1248.3632 L726.1282 1248.9508 L722.8796 1244.1086 Z" clip-path="url(#clipPath2)" stroke="none"/>
    </g>
  </g>
</svg>
